<?xml version="1.0"?>
<svg xmlns="http://www.w3.org/2000/svg" height="512px" viewBox="0 -47 512 512" width="512px" class=""><g><path d="m418.988281 204.800781h-325.984375c-3.402344 16.691407-16.589844 29.875-33.277344 33.269531v95.582032c16.6875 3.398437 29.875 16.582031 33.277344 33.273437h325.984375c3.394531-16.691406 16.578125-29.875 33.269531-33.273437v-95.582032c-16.683593-3.394531-29.867187-16.578124-33.269531-33.269531zm-303.488281 110.933594h7.933594c7.230468 0 13.101562-5.878906 13.101562-13.109375 0-4.710938 3.820313-8.53125 8.53125-8.53125 4.710938 0 8.535156 3.820312 8.535156 8.53125 0 16.640625-13.535156 30.175781-30.167968 30.175781h-7.933594c-16.632812 0-30.167969-13.535156-30.167969-30.175781v-42.050781c0-16.640625 13.535157-30.175781 30.167969-30.175781h7.933594c16.632812 0 30.167968 13.535156 30.167968 30.175781 0 4.710937-3.824218 8.53125-8.535156 8.53125-4.710937 0-8.53125-3.820313-8.53125-8.53125 0-7.226563-5.871094-13.109375-13.101562-13.109375h-7.933594c-7.230469 0-13.101562 5.882812-13.101562 13.109375v42.050781c0 7.230469 5.871093 13.109375 13.101562 13.109375zm97.832031 17.066406h-34.132812c-4.710938 0-8.53125-3.824219-8.53125-8.535156v-85.332031c0-4.710938 3.820312-8.535156 8.53125-8.535156 4.710937 0 8.535156 3.824218 8.535156 8.535156v76.800781h25.597656c4.710938 0 8.535157 3.820313 8.535157 8.53125s-3.824219 8.535156-8.535157 8.535156zm85.335938-25.636719c0 14.132813-11.503907 25.636719-25.636719 25.636719h-16.996094c-14.132812 0-25.636718-11.503906-25.636718-25.636719v-51.128906c0-14.132812 11.503906-25.636718 25.636718-25.636718h16.996094c14.132812 0 25.636719 11.503906 25.636719 25.636718zm42.664062-34.097656c14.117188 0 25.601563 11.484375 25.601563 25.601563v8.53125c0 14.113281-11.484375 25.601562-25.601563 25.601562h-17.066406c-4.710937 0-8.53125-3.824219-8.53125-8.535156s3.820313-8.53125 8.53125-8.53125h17.066406c4.703125 0 8.535157-3.832031 8.535157-8.535156v-8.53125c0-4.703125-3.832032-8.535157-8.535157-8.535157-14.113281 0-25.597656-11.484374-25.597656-25.597656v-8.535156c0-14.113281 11.484375-25.601562 25.597656-25.601562h17.066407c4.710937 0 8.535156 3.824218 8.535156 8.535156 0 4.710937-3.824219 8.53125-8.535156 8.53125h-17.066407c-4.699219 0-8.53125 3.832031-8.53125 8.535156v8.535156c0 4.699219 3.832031 8.53125 8.53125 8.53125zm76.800781 0c4.710938 0 8.535157 3.824219 8.535157 8.535156 0 4.707032-3.824219 8.53125-8.535157 8.53125h-17.066406v25.601563h17.066406c4.710938 0 8.535157 3.820313 8.535157 8.53125s-3.824219 8.535156-8.535157 8.535156h-25.597656c-4.710937 0-8.535156-3.824219-8.535156-8.535156v-85.332031c0-4.710938 3.824219-8.535156 8.535156-8.535156h25.597656c4.710938 0 8.535157 3.824218 8.535157 8.535156 0 4.710937-3.824219 8.53125-8.535157 8.53125h-17.066406v25.601562zm0 0" data-original="#000000" class="active-path" data-old_color="#00FFD3" fill="#FFFFFF"/><path d="m273.03125 247.464844h-16.996094c-4.726562 0-8.570312 3.84375-8.570312 8.570312v51.128906c0 4.730469 3.84375 8.570313 8.570312 8.570313h16.996094c4.730469 0 8.570312-3.839844 8.570312-8.570313v-51.128906c0-4.726562-3.839843-8.570312-8.570312-8.570312zm0 0" data-original="#000000" class="active-path" data-old_color="#00FFD3" fill="#FFFFFF"/><path d="m503.464844 153.601562h-116.144532l-95.652343-87.640624c4.394531-6.707032 7-14.691407 7-23.292969 0-23.527344-19.140625-42.667969-42.667969-42.667969s-42.667969 19.140625-42.667969 42.667969c0 8.148437 2.417969 15.691406 6.402344 22.175781l-95.097656 88.757812h-116.101563c-4.710937 0-8.535156 3.820313-8.535156 8.53125v247.46875c0 4.707032 3.824219 8.53125 8.535156 8.53125h494.929688c4.710937 0 8.535156-3.824218 8.535156-8.53125v-247.46875c0-4.710937-3.824219-8.53125-8.535156-8.53125zm-273.066406-110.933593c0-14.117188 11.488281-25.601563 25.601562-25.601563s25.601562 11.484375 25.601562 25.601563c0 14.113281-11.488281 25.597656-25.601562 25.597656-4.25 0-8.199219-1.140625-11.734375-2.976563l17.554687-16.382812c3.4375-3.21875 3.625-8.621094.410157-12.058594-3.210938-3.457031-8.609375-3.636718-12.058594-.417968l-17.621094 16.453124c-1.367187-3.140624-2.152343-6.582031-2.152343-10.214843zm.941406 34.6875c6.980468 4.972656 15.460937 7.976562 24.660156 7.976562 8.753906 0 16.894531-2.660156 23.679688-7.210937l82.371093 75.480468h-212.402343zm237.992187 263.976562c0 4.710938-3.820312 8.535157-8.53125 8.535157-14.113281 0-25.601562 11.484374-25.601562 25.597656 0 4.710937-3.820313 8.535156-8.53125 8.535156h-341.335938c-4.710937 0-8.53125-3.824219-8.53125-8.535156 0-14.113282-11.488281-25.597656-25.601562-25.597656-4.710938 0-8.53125-3.824219-8.53125-8.535157v-110.933593c0-4.707032 3.820312-8.53125 8.53125-8.53125 14.113281 0 25.601562-11.488282 25.601562-25.601563 0-4.710937 3.820313-8.53125 8.53125-8.53125h341.335938c4.710937 0 8.53125 3.820313 8.53125 8.53125 0 14.113281 11.488281 25.601563 25.601562 25.601563 4.710938 0 8.53125 3.824218 8.53125 8.53125zm0 0" data-original="#000000" class="active-path" data-old_color="#00FFD3" fill="#FFFFFF"/></g> </svg>
